<svg width="388" height="152" viewBox="0 0 388 152" fill="none" xmlns="http://www.w3.org/2000/svg">
<g filter="url(#filter0_d)">
<path fill-rule="evenodd" clip-rule="evenodd" d="M361.513 0H0V125.987L18.4868 144H380V18.0128L361.513 0Z" fill="#30364A"/>
</g>
<path d="M355.643 22.5H228.357C227.055 22.5 226 23.5552 226 24.8572V119.143C226 120.445 227.055 121.5 228.357 121.5H355.643C356.945 121.5 358 120.445 358 119.143V24.8572C358 23.5552 356.945 22.5 355.643 22.5ZM267.794 80.679L234.795 116.036C234.226 116.674 233.356 116.955 232.522 116.768C231.687 116.582 231.019 115.959 230.775 115.139C230.532 114.32 230.751 113.433 231.348 112.821L264.348 77.4638C264.917 76.8257 265.787 76.5455 266.621 76.7316C267.455 76.9178 268.124 77.5412 268.367 78.3607C268.611 79.1803 268.392 80.0672 267.794 80.679ZM352.536 116.152C351.584 117.039 350.093 116.988 349.205 116.036L316.205 80.679C315.608 80.0672 315.389 79.1803 315.633 78.3607C315.876 77.5412 316.544 76.918 317.379 76.7316C318.213 76.5455 319.083 76.8255 319.652 77.4638L352.652 112.821C353.539 113.773 353.488 115.264 352.536 116.152ZM352.444 31.377L298.065 77.056C296.368 78.486 294.22 79.2701 292 79.2693C289.78 79.2701 287.632 78.486 285.935 77.056L231.556 31.377C230.911 30.8356 230.603 29.991 230.75 29.1616C230.896 28.3322 231.474 27.6439 232.266 27.3562C233.057 27.0682 233.942 27.2244 234.587 27.7658L288.967 73.4474C290.72 74.9218 293.28 74.9218 295.034 73.4474L349.413 27.7658C350.41 26.9287 351.897 27.0586 352.734 28.0559C353.571 29.0531 353.441 30.5399 352.444 31.377Z" fill="#3E465F"/>
<defs>
<filter id="filter0_d" x="0" y="0" width="388" height="152" filterUnits="userSpaceOnUse" color-interpolation-filters="sRGB">
<feFlood flood-opacity="0" result="BackgroundImageFix"/>
<feColorMatrix in="SourceAlpha" type="matrix" values="0 0 0 0 0 0 0 0 0 0 0 0 0 0 0 0 0 0 127 0"/>
<feOffset dx="4" dy="4"/>
<feGaussianBlur stdDeviation="2"/>
<feColorMatrix type="matrix" values="0 0 0 0 0 0 0 0 0 0 0 0 0 0 0 0 0 0 0.25 0"/>
<feBlend mode="normal" in2="BackgroundImageFix" result="effect1_dropShadow"/>
<feBlend mode="normal" in="SourceGraphic" in2="effect1_dropShadow" result="shape"/>
</filter>
</defs>
</svg>
