<svg width="388" height="152" viewBox="0 0 388 152" fill="none" xmlns="http://www.w3.org/2000/svg">
<g filter="url(#filter0_d)">
<path fill-rule="evenodd" clip-rule="evenodd" d="M361.513 0H0V125.987L18.4868 144H380V18.0128L361.513 0Z" fill="#30364A"/>
</g>
<path d="M303.014 17H302.986C272.661 17 248 41.6675 248 72C248 84.0312 251.878 95.1825 258.471 104.237L251.616 124.669L272.757 117.911C281.454 123.673 291.828 127 303.014 127C333.339 127 358 102.326 358 72C358 41.6744 333.339 17 303.014 17ZM335.017 94.6669C333.69 98.4137 328.424 101.521 324.223 102.429C321.349 103.041 317.596 103.529 304.959 98.29C288.796 91.5938 278.388 75.1694 277.576 74.1037C276.799 73.0381 271.045 65.4069 271.045 57.5144C271.045 49.6219 275.053 45.7788 276.669 44.1288C277.996 42.7744 280.189 42.1556 282.292 42.1556C282.973 42.1556 283.585 42.19 284.135 42.2175C285.751 42.2862 286.562 42.3825 287.627 44.9331C288.954 48.13 292.186 56.0225 292.571 56.8338C292.962 57.645 293.354 58.745 292.804 59.8106C292.289 60.9106 291.835 61.3987 291.024 62.3337C290.212 63.2687 289.442 63.9838 288.631 64.9875C287.889 65.8606 287.05 66.7956 287.985 68.4113C288.92 69.9925 292.151 75.2656 296.909 79.5006C303.048 84.9662 308.026 86.7125 309.806 87.455C311.133 88.005 312.714 87.8744 313.684 86.8431C314.914 85.5163 316.434 83.3163 317.981 81.1506C319.081 79.5969 320.469 79.4044 321.927 79.9544C323.412 80.47 331.27 84.3544 332.886 85.1587C334.501 85.97 335.567 86.355 335.959 87.0356C336.344 87.7163 336.344 90.9131 335.017 94.6669Z" fill="#3E465F"/>
<defs>
<filter id="filter0_d" x="0" y="0" width="388" height="152" filterUnits="userSpaceOnUse" color-interpolation-filters="sRGB">
<feFlood flood-opacity="0" result="BackgroundImageFix"/>
<feColorMatrix in="SourceAlpha" type="matrix" values="0 0 0 0 0 0 0 0 0 0 0 0 0 0 0 0 0 0 127 0"/>
<feOffset dx="4" dy="4"/>
<feGaussianBlur stdDeviation="2"/>
<feColorMatrix type="matrix" values="0 0 0 0 0 0 0 0 0 0 0 0 0 0 0 0 0 0 0.25 0"/>
<feBlend mode="normal" in2="BackgroundImageFix" result="effect1_dropShadow"/>
<feBlend mode="normal" in="SourceGraphic" in2="effect1_dropShadow" result="shape"/>
</filter>
</defs>
</svg>
