<svg width="301" height="142" viewBox="0 0 301 142" fill="none" xmlns="http://www.w3.org/2000/svg">
<g filter="url(#filter0_d)">
<path fill-rule="evenodd" clip-rule="evenodd" d="M278.746 0.0571442H0V117.245L14.2544 134H293V16.812L278.746 0.0571442Z" fill="#30364A"/>
</g>
<g clip-path="url(#clip0)">
<path d="M270.875 32.1476H181.182C180.264 32.1476 179.521 32.8912 179.521 33.8086V100.248C179.521 101.166 180.264 101.91 181.182 101.91H270.875C271.793 101.91 272.536 101.166 272.536 100.248V33.8086C272.536 32.8912 271.793 32.1476 270.875 32.1476ZM208.972 73.1444L185.718 98.0594C185.317 98.509 184.704 98.7065 184.116 98.5753C183.528 98.4441 183.057 98.0049 182.886 97.4273C182.714 96.8498 182.869 96.2248 183.289 95.7937L206.543 70.8787C206.944 70.4291 207.557 70.2316 208.145 70.3628C208.733 70.494 209.204 70.9332 209.375 71.5108C209.547 72.0883 209.393 72.7133 208.972 73.1444ZM268.686 98.1407C268.016 98.7661 266.965 98.7297 266.339 98.0594L243.085 73.1444C242.665 72.7133 242.51 72.0883 242.682 71.5108C242.853 70.9332 243.324 70.4941 243.912 70.3628C244.5 70.2316 245.113 70.4289 245.514 70.8787L268.768 95.7937C269.393 96.4645 269.357 97.5151 268.686 98.1407ZM268.621 38.4029L230.302 70.5913C229.106 71.5991 227.593 72.1515 226.029 72.151C224.465 72.1515 222.951 71.5991 221.755 70.5913L183.436 38.4029C182.981 38.0214 182.765 37.4263 182.868 36.8418C182.971 36.2574 183.378 35.7723 183.936 35.5696C184.494 35.3667 185.117 35.4768 185.572 35.8583L223.891 68.0485C225.127 69.0875 226.931 69.0875 228.166 68.0485L266.486 35.8583C267.188 35.2684 268.236 35.3599 268.826 36.0626C269.416 36.7654 269.324 37.8131 268.621 38.4029Z" fill="#3E465F"/>
</g>
<defs>
<filter id="filter0_d" x="0" y="0.0571442" width="301" height="141.943" filterUnits="userSpaceOnUse" color-interpolation-filters="sRGB">
<feFlood flood-opacity="0" result="BackgroundImageFix"/>
<feColorMatrix in="SourceAlpha" type="matrix" values="0 0 0 0 0 0 0 0 0 0 0 0 0 0 0 0 0 0 127 0"/>
<feOffset dx="4" dy="4"/>
<feGaussianBlur stdDeviation="2"/>
<feColorMatrix type="matrix" values="0 0 0 0 0 0 0 0 0 0 0 0 0 0 0 0 0 0 0.25 0"/>
<feBlend mode="normal" in2="BackgroundImageFix" result="effect1_dropShadow"/>
<feBlend mode="normal" in="SourceGraphic" in2="effect1_dropShadow" result="shape"/>
</filter>
<clipPath id="clip0">
<rect width="93.0159" height="93.0159" fill="white" transform="translate(179.521 20.5206)"/>
</clipPath>
</defs>
</svg>
