<svg width="301" height="142" viewBox="0 0 301 142" fill="none" xmlns="http://www.w3.org/2000/svg">
<g filter="url(#filter0_d)">
<path fill-rule="evenodd" clip-rule="evenodd" d="M278.746 0H0V117.188L14.2544 133.943H293V16.7549L278.746 0Z" fill="#30364A"/>
</g>
<g clip-path="url(#clip0)">
<path d="M226.04 20.4635H226.017C200.374 20.4635 179.521 41.3223 179.521 66.9714C179.521 77.145 182.799 86.5745 188.375 94.2309L182.579 111.509L200.455 105.794C207.809 110.666 216.582 113.479 226.04 113.479C251.684 113.479 272.537 92.6147 272.537 66.9714C272.537 41.3281 251.684 20.4635 226.04 20.4635ZM253.102 86.1385C251.98 89.3069 247.527 91.9346 243.975 92.7019C241.545 93.2193 238.371 93.6321 227.685 89.2022C214.018 83.5399 205.216 69.6515 204.53 68.7504C203.873 67.8493 199.007 61.3963 199.007 54.7224C199.007 48.0485 202.397 44.7988 203.763 43.4035C204.885 42.2583 206.739 41.7351 208.518 41.7351C209.094 41.7351 209.611 41.7641 210.076 41.7874C211.443 41.8455 212.129 41.9269 213.03 44.0837C214.152 46.787 216.884 53.4609 217.209 54.1469C217.541 54.8329 217.872 55.763 217.407 56.6641C216.971 57.5943 216.587 58.007 215.901 58.7977C215.215 59.5883 214.564 60.1929 213.878 61.0417C213.251 61.78 212.541 62.5706 213.332 63.9368C214.123 65.2739 216.855 69.7328 220.878 73.3139C226.069 77.9357 230.278 79.4123 231.784 80.0402C232.906 80.5052 234.243 80.3948 235.063 79.5228C236.103 78.4008 237.388 76.5404 238.696 74.7092C239.626 73.3953 240.801 73.2326 242.033 73.6976C243.289 74.1337 249.934 77.4183 251.3 78.0985C252.666 78.7844 253.567 79.11 253.898 79.6855C254.224 80.2611 254.224 82.9643 253.102 86.1385Z" fill="#3E465F"/>
</g>
<defs>
<filter id="filter0_d" x="0" y="0" width="301" height="141.943" filterUnits="userSpaceOnUse" color-interpolation-filters="sRGB">
<feFlood flood-opacity="0" result="BackgroundImageFix"/>
<feColorMatrix in="SourceAlpha" type="matrix" values="0 0 0 0 0 0 0 0 0 0 0 0 0 0 0 0 0 0 127 0"/>
<feOffset dx="4" dy="4"/>
<feGaussianBlur stdDeviation="2"/>
<feColorMatrix type="matrix" values="0 0 0 0 0 0 0 0 0 0 0 0 0 0 0 0 0 0 0.25 0"/>
<feBlend mode="normal" in2="BackgroundImageFix" result="effect1_dropShadow"/>
<feBlend mode="normal" in="SourceGraphic" in2="effect1_dropShadow" result="shape"/>
</filter>
<clipPath id="clip0">
<rect width="93.0159" height="93.0159" fill="white" transform="translate(179.521 20.4635)"/>
</clipPath>
</defs>
</svg>
