<svg width="318" height="152" viewBox="0 0 318 152" fill="none" xmlns="http://www.w3.org/2000/svg">
<g filter="url(#filter0_d)">
<path fill-rule="evenodd" clip-rule="evenodd" d="M294.919 0H0V125.987L15.0814 144H310V18.0127L294.919 0Z" fill="#30364A"/>
</g>
<path d="M250.01 32H249.99C227.935 32 210 49.94 210 72C210 80.75 212.82 88.86 217.615 95.445L212.63 110.305L228.005 105.39C234.33 109.58 241.875 112 250.01 112C272.065 112 290 94.055 290 72C290 49.945 272.065 32 250.01 32ZM273.285 88.485C272.32 91.21 268.49 93.47 265.435 94.13C263.345 94.575 260.615 94.93 251.425 91.12C239.67 86.25 232.1 74.305 231.51 73.53C230.945 72.755 226.76 67.205 226.76 61.465C226.76 55.725 229.675 52.93 230.85 51.73C231.815 50.745 233.41 50.295 234.94 50.295C235.435 50.295 235.88 50.32 236.28 50.34C237.455 50.39 238.045 50.46 238.82 52.315C239.785 54.64 242.135 60.38 242.415 60.97C242.7 61.56 242.985 62.36 242.585 63.135C242.21 63.935 241.88 64.29 241.29 64.97C240.7 65.65 240.14 66.17 239.55 66.9C239.01 67.535 238.4 68.215 239.08 69.39C239.76 70.54 242.11 74.375 245.57 77.455C250.035 81.43 253.655 82.7 254.95 83.24C255.915 83.64 257.065 83.545 257.77 82.795C258.665 81.83 259.77 80.23 260.895 78.655C261.695 77.525 262.705 77.385 263.765 77.785C264.845 78.16 270.56 80.985 271.735 81.57C272.91 82.16 273.685 82.44 273.97 82.935C274.25 83.43 274.25 85.755 273.285 88.485Z" fill="#3E465F"/>
<defs>
<filter id="filter0_d" x="0" y="0" width="318" height="152" filterUnits="userSpaceOnUse" color-interpolation-filters="sRGB">
<feFlood flood-opacity="0" result="BackgroundImageFix"/>
<feColorMatrix in="SourceAlpha" type="matrix" values="0 0 0 0 0 0 0 0 0 0 0 0 0 0 0 0 0 0 127 0"/>
<feOffset dx="4" dy="4"/>
<feGaussianBlur stdDeviation="2"/>
<feColorMatrix type="matrix" values="0 0 0 0 0 0 0 0 0 0 0 0 0 0 0 0 0 0 0.25 0"/>
<feBlend mode="normal" in2="BackgroundImageFix" result="effect1_dropShadow"/>
<feBlend mode="normal" in="SourceGraphic" in2="effect1_dropShadow" result="shape"/>
</filter>
</defs>
</svg>
