<svg width="318" height="152" viewBox="0 0 318 152" fill="none" xmlns="http://www.w3.org/2000/svg">
<g filter="url(#filter0_d)">
<path fill-rule="evenodd" clip-rule="evenodd" d="M294.919 0H0V125.987L15.0814 144H310V18.0128L294.919 0Z" fill="#30364A"/>
</g>
<path d="M288.571 42H211.429C210.64 42 210 42.6395 210 43.4286V100.571C210 101.36 210.64 102 211.429 102H288.571C289.36 102 290 101.36 290 100.571V43.4286C290 42.6395 289.36 42 288.571 42ZM235.33 77.26L215.33 98.6886C214.985 99.0753 214.458 99.2452 213.952 99.1323C213.447 99.0195 213.042 98.6417 212.894 98.145C212.747 97.6483 212.88 97.1108 213.241 96.74L233.241 75.3114C233.586 74.9247 234.113 74.7548 234.619 74.8677C235.125 74.9805 235.53 75.3583 235.677 75.855C235.825 76.3517 235.692 76.8892 235.33 77.26ZM286.689 98.7586C286.112 99.2964 285.208 99.2652 284.67 98.6886L264.67 77.26C264.308 76.8892 264.175 76.3517 264.323 75.855C264.47 75.3583 264.875 74.9806 265.381 74.8677C265.887 74.7548 266.414 74.9245 266.759 75.3114L286.759 96.74C287.296 97.3169 287.265 98.2205 286.689 98.7586ZM286.633 47.38L253.676 75.0642C252.647 75.9309 251.345 76.4061 250 76.4056C248.655 76.4061 247.353 75.9309 246.324 75.0642L213.367 47.38C212.976 47.0519 212.79 46.54 212.879 46.0373C212.967 45.5347 213.318 45.1175 213.797 44.9431C214.277 44.7686 214.813 44.8633 215.204 45.1914L248.162 72.8772C249.224 73.7708 250.776 73.7708 251.839 72.8772L284.796 45.1914C285.4 44.6841 286.301 44.7628 286.809 45.3672C287.316 45.9716 287.237 46.8727 286.633 47.38Z" fill="#3E465F"/>
<defs>
<filter id="filter0_d" x="0" y="0" width="318" height="152" filterUnits="userSpaceOnUse" color-interpolation-filters="sRGB">
<feFlood flood-opacity="0" result="BackgroundImageFix"/>
<feColorMatrix in="SourceAlpha" type="matrix" values="0 0 0 0 0 0 0 0 0 0 0 0 0 0 0 0 0 0 127 0"/>
<feOffset dx="4" dy="4"/>
<feGaussianBlur stdDeviation="2"/>
<feColorMatrix type="matrix" values="0 0 0 0 0 0 0 0 0 0 0 0 0 0 0 0 0 0 0.25 0"/>
<feBlend mode="normal" in2="BackgroundImageFix" result="effect1_dropShadow"/>
<feBlend mode="normal" in="SourceGraphic" in2="effect1_dropShadow" result="shape"/>
</filter>
</defs>
</svg>
