<svg width="132" height="132" viewBox="0 0 132 132" fill="none" xmlns="http://www.w3.org/2000/svg">
<path d="M129.643 16.5H2.35718C1.05523 16.5 0 17.5552 0 18.8572V113.143C0 114.445 1.05523 115.5 2.35718 115.5H129.643C130.945 115.5 132 114.445 132 113.143V18.8572C132 17.5552 130.945 16.5 129.643 16.5ZM41.7945 74.679L8.7945 110.036C8.22577 110.674 7.35591 110.955 6.52163 110.768C5.68734 110.582 5.01909 109.959 4.77546 109.139C4.53183 108.32 4.75123 107.433 5.34832 106.821L38.3483 71.4638C38.9171 70.8257 39.7869 70.5455 40.6212 70.7316C41.4555 70.9178 42.1237 71.5412 42.3674 72.3607C42.611 73.1803 42.3916 74.0672 41.7945 74.679ZM126.536 110.152C125.584 111.039 124.093 110.988 123.205 110.036L90.2055 74.679C89.6084 74.0672 89.389 73.1803 89.6326 72.3607C89.8763 71.5412 90.5443 70.918 91.3788 70.7316C92.2131 70.5455 93.0829 70.8255 93.6517 71.4638L126.652 106.821C127.539 107.773 127.488 109.264 126.536 110.152ZM126.444 25.377L72.065 71.056C70.3679 72.486 68.2195 73.2701 66 73.2693C63.7805 73.2701 61.6324 72.486 59.935 71.056L5.55586 25.377C4.91081 24.8356 4.6035 23.991 4.74994 23.1616C4.89638 22.3322 5.47413 21.6439 6.26562 21.3562C7.0571 21.0682 7.94217 21.2244 8.58722 21.7658L62.9666 67.4474C64.7202 68.9218 67.28 68.9218 69.0339 67.4474L123.413 21.7658C124.41 20.9287 125.897 21.0586 126.734 22.0559C127.571 23.0531 127.441 24.5399 126.444 25.377Z" fill="#242424"/>
</svg>
