<svg width="132" height="132" viewBox="0 0 132 132" fill="none" xmlns="http://www.w3.org/2000/svg">
<path d="M66.0165 0H65.9835C29.5928 0 0 29.601 0 66C0 80.4375 4.653 93.819 12.5647 104.684L4.3395 129.203L29.7083 121.094C40.1445 128.007 52.5938 132 66.0165 132C102.407 132 132 102.391 132 66C132 29.6093 102.407 0 66.0165 0ZM104.42 93.2002C102.828 97.6965 96.5085 101.425 91.4678 102.514C88.0192 103.249 83.5147 103.835 68.3512 97.548C48.9555 89.5125 36.465 69.8032 35.4915 68.5245C34.5592 67.2458 27.654 58.0882 27.654 48.6173C27.654 39.1463 32.4637 34.5345 34.4025 32.5545C35.9948 30.9293 38.6265 30.1867 41.151 30.1867C41.9678 30.1867 42.702 30.228 43.362 30.261C45.3008 30.3435 46.2743 30.459 47.553 33.5198C49.1452 37.356 53.0227 46.827 53.4847 47.8005C53.955 48.774 54.4253 50.094 53.7653 51.3728C53.1465 52.6928 52.602 53.2785 51.6285 54.4005C50.655 55.5225 49.731 56.3805 48.7575 57.585C47.8665 58.6328 46.86 59.7548 47.982 61.6935C49.104 63.591 52.9815 69.9187 58.6905 75.0007C66.0577 81.5595 72.0307 83.655 74.1675 84.546C75.7598 85.206 77.6572 85.0493 78.8205 83.8118C80.2972 82.2195 82.1205 79.5795 83.9767 76.9808C85.2968 75.1162 86.9632 74.8852 88.7122 75.5452C90.4943 76.164 99.924 80.8252 101.863 81.7905C103.801 82.764 105.08 83.226 105.55 84.0428C106.012 84.8595 106.012 88.6957 104.42 93.2002Z" fill="#242424"/>
</svg>
